<svg width="895.7" height="448.7" xmlns="http://www.w3.org/2000/svg" xml:space="preserve" version="1.1">
 <metadata/>

 <g>
  <title>Layer 1</title>
  <g id="svg_1" transform="matrix(4.16667 0 0 4.16667 -181.171 -182.779)">
   <path id="svg_2" fill="#0000ff" d="m181.2,118.3c23.6,-9.4 38.3,-14.8 77.3,-24.3c-21.2,1.4 -67.9,4.5 -100.1,10.9c-0.1,-0.1 22.3,13.1 22.8,13.4z" class="st0"/>
  </g>
  <g id="svg_3" transform="matrix(4.16667 0 0 4.16667 -181.171 -182.779)">
   <path id="svg_4" fill="#0000ff" d="m107.8,149.6l30.9,0c6,-9.2 12.3,-13.8 19.2,-18.8c-5.3,-2.1 -10.7,-4.1 -16.2,-6c-19.7,8.6 -30.7,20.2 -33.9,24.8z" class="st0"/>
  </g>
  <g id="svg_5" transform="matrix(4.16667 0 0 4.16667 -181.171 -182.779)">
   <path id="svg_6" fill="#0000ff" d="m113.9,115.9c-27.5,9.8 -42.8,20.6 -53.1,33.7l34,0c3.3,-4.7 16,-18 39.8,-27.2c-6.7,-2.3 -18,-5.8 -20.7,-6.5z" class="st0"/>
  </g>
  <g id="svg_7" transform="matrix(4.16667 0 0 4.16667 -181.171 -182.779)">
   <path id="svg_8" fill="#ff0000" d="m128.1,95.1l-75.3,0c75.9,13.8 112.5,31.5 171.5,56.4c-5.2,-3.7 -86.4,-51.5 -96.2,-56.4z" class="st1"/>
  </g>
  <g id="svg_9" transform="matrix(4.16667 0 0 4.16667 -181.171 -182.779)">
   <path id="svg_10" fill="#0000ff" d="m208.6,51.4c-10,0 -16.6,5.9 -16.6,14.7c0,8.4 7.2,14.7 16.6,14.7c9.8,0 16.7,-6.1 16.7,-14.7c0,-8.8 -6.7,-14.7 -16.7,-14.7zm0,22.2c-4.2,0 -7.5,-3.4 -7.5,-7.5s3.4,-7.5 7.5,-7.5s7.5,3.4 7.5,7.5s-3.3,7.5 -7.5,7.5z" class="st0"/>
  </g>
  <g id="svg_11" transform="matrix(4.16667 0 0 4.16667 -181.171 -182.779)">
   <path id="svg_12" fill="#0000ff" d="m175.1,51.8l-6,0l0,7.6l4.1,0c3.3,0 6,2.9 6,6.4c0,4.3 -3.5,6.4 -5.8,6.5l-7.4,0l0,-28.4l-9.2,0l0,36l16.6,0c7.3,0 15.2,-5.5 15.2,-13.8c-0.2,-8.9 -7,-14.3 -13.5,-14.3z" class="st0"/>
  </g>
  <g id="svg_13" transform="matrix(4.16667 0 0 4.16667 -181.171 -182.779)">
   <path id="svg_14" fill="#0000ff" d="m92.1,65.8c0,-3.6 2.9,-6.5 6.4,-6.5l7.3,0l-5.9,9.9l8.8,0l5.9,-9.2l0,-8.1l-17.6,0c-7.7,0 -13.9,6.3 -13.9,14s6.2,14 13.9,14l17.6,0l0,-7.6l-16.1,0c-3.5,0 -6.4,-2.9 -6.4,-6.5z" class="st0"/>
  </g>
  <g id="svg_15" transform="matrix(4.16667 0 0 4.16667 -181.171 -182.779)">
   <path id="svg_16" fill="#0000ff" d="m65.9,43.9l-22.4,0l0,36l8.9,0l0,-28.1l11.6,0c3.2,0 6.6,1.7 6.6,6.4c0,3.6 -2.6,6.4 -6.1,6.4l-8.9,0l0,7.5l6.3,0c5.4,0.2 7.7,2.7 7.8,8l0,7.7l9.4,0l0,-10.3c0,-5.4 -3.8,-8.2 -7.5,-9.1c5.8,-2 8.7,-6.5 8.7,-12c-0.3,-7.7 -7.6,-12.5 -14.4,-12.5z" class="st0"/>
  </g>
  <g id="svg_17" transform="matrix(4.16667 0 0 4.16667 -181.171 -182.779)">
   <path id="svg_18" fill="#0000ff" d="m250.1,64.9c6.2,-1.9 8,-5.3 8,-12.1l0,-1l-9.1,0l0,1.5c0,4.5 -1.9,7.8 -6.2,7.8l-4.3,0l0,-17.2l-9.2,0l0,36l9.2,0l0,-11.2l3.3,0c4.6,0 7.4,2.6 7.4,6.8l0,4.4l9.2,0l0,-4.1c0,-5.4 -2.4,-9.3 -8.3,-10.9z" class="st0"/>
  </g>
  <g id="svg_19" transform="matrix(4.16667 0 0 4.16667 -181.171 -182.779)">
   <path id="svg_20" fill="#0000ff" d="m128,65.8c0,-3.6 2.9,-6.5 6.4,-6.5l7.3,0l-5.9,9.8l8.8,0l5.9,-9.2l0,-8.1l-17.6,0c-7.7,0 -13.9,6.3 -13.9,14s6.2,14 13.9,14l17.6,0l0,-7.6l-16.2,0c-3.4,0.1 -6.3,-2.8 -6.3,-6.4z" class="st0"/>
  </g>
 </g>
</svg>