<?xml version="1.0" encoding="UTF-8" standalone="no"?>
<svg xmlns="http://www.w3.org/2000/svg"
   xmlns:dc="http://purl.org/dc/elements/1.1/"
   xmlns:cc="http://creativecommons.org/ns#"
   xmlns:rdf="http://www.w3.org/1999/02/22-rdf-syntax-ns#"
   xmlns:sodipodi="http://sodipodi.sourceforge.net/DTD/sodipodi-0.dtd"
   xmlns:inkscape="http://www.inkscape.org/namespaces/inkscape"
   width="1000.19" height="444.34"
   version="1.1"
   inkscape:version="0.48.2 r9819"
   sodipodi:docname="uniqlo.svg">
  <defs>
    <clipPath
       clipPathUnits="userSpaceOnUse"
       id="clipPath6912-0">
      <rect
         style="fill:none"
         id="rect6914-3"
         width="57.191906"
         height="25.407726"
         x="513.37592"
         y="-50.023682"
         transform="scale(1,-1)" />
    </clipPath>
    <clipPath
       id="clipPath4117-6"
       clipPathUnits="userSpaceOnUse">
      <path
         inkscape:connector-curvature="0"
         id="path4119-2"
         d="m 0,841.89 595.275,0 L 595.275,0 0,0 0,841.89 z" />
    </clipPath>
  </defs>
  <metadata>
    <rdf:RDF>
      <cc:Work rdf:about="">
        <dc:format>image/svg+xml</dc:format>
        <dc:type rdf:resource="http://purl.org/dc/dcmitype/StillImage"/>
        <dc:title></dc:title>
      </cc:Work>
    </rdf:RDF>
  </metadata>
  <g transform="translate(0,-608.0222)">
    <g
       transform="matrix(17.488377,0,0,-17.488377,-8978.1727,1482.6773)"
       clip-path="url(#clipPath6912-0)">
      <path
         id="path4109"
         style="fill:#ed1d24;fill-opacity:1;fill-rule:nonzero;stroke:none"
         d="m 545.176,24.576 l25.444,0 0,25.378 -25.444,0 0,-25.378 z"
         inkscape:connector-curvature="0" />
      <path
         id="path4111"
         style="fill:#ffffff;fill-opacity:1;fill-rule:nonzero;stroke:none"
         d="m 563.908,46.492 l1.629,0 0,-8.017 -1.629,0 0,8.017 z"
         inkscape:connector-curvature="0" />
      <g
         id="g4113">
        <g
           clip-path="url(#clipPath4117-6)"
           id="g4115">
          <g
             transform="translate(553.7266,41.1387)"
             id="g4121">
            <path
               id="path4123"
               style="fill:#ffffff;fill-opacity:1;fill-rule:nonzero;stroke:none"
               d="m 0,0 c 0,-1.504 -1.147,-2.664 -2.647,-2.664 -1.497,0 -2.672,1.16 -2.672,2.664 l 0,5.353 1.589,0 0,-5.353 c 0,-0.608 0.483,-1.098 1.083,-1.098 0.603,0 1.082,0.49 1.082,1.098 l 0,5.353 L 0,5.353 0,0 z"
               inkscape:connector-curvature="0" />
          </g>
          <g
             transform="translate(561.2539,28.0322)"
             id="g4125">
            <path
               id="path4127"
               style="fill:#ffffff;fill-opacity:1;fill-rule:nonzero;stroke:none"
               d="m 0,0 l-5.354,0 0,8.014 1.623,0 0,-6.384 L 0,1.63 0,0 z"
               inkscape:connector-curvature="0" />
          </g>
          <g
             transform="translate(561.2539,38.4756)"
             id="g4129">
            <path
               id="path4131"
               style="fill:#ffffff;fill-opacity:1;fill-rule:nonzero;stroke:none"
               d="m 0,0 l-1.627,0 -2.104,4.593 0,-4.593 -1.623,0 0,8.017 1.623,0 2.104,-4.586 0,4.586 L 0,8.017 0,0 z"
               inkscape:connector-curvature="0" />
          </g>
          <g
             transform="translate(551.0781,36.0459)"
             id="g4133">
            <path
               id="path4135"
               style="fill:#ffffff;fill-opacity:1;fill-rule:nonzero;stroke:none"
               d="m 0,0 c -1.495,0 -2.671,-1.198 -2.671,-2.648 l 0,-2.718 c 0,-1.431 1.176,-2.648 2.671,-2.648 0.181,0 0.357,0.019 0.525,0.05 l 0.558,-1.673 1.565,0 -0.741,2.408 c 0.434,0.496 0.741,1.171 0.741,1.863 l 0,2.718 C 2.648,-1.198 1.501,0 0,0 m 1.083,-5.366 c 0,-0.527 -0.479,-1.018 -1.083,-1.018 -0.599,0 -1.082,0.491 -1.082,1.018 l 0,2.718 c 0,0.599 0.483,1.08 1.082,1.08 0.604,0 1.083,-0.481 1.083,-1.08 l 0,-2.718 z"
               inkscape:connector-curvature="0" />
          </g>
          <g
             transform="translate(564.7197,36.0459)"
             id="g4137">
            <path
               id="path4139"
               style="fill:#ffffff;fill-opacity:1;fill-rule:nonzero;stroke:none"
               d="m 0,0 c -1.499,0 -2.649,-1.198 -2.649,-2.648 l 0,-2.718 c 0,-1.431 1.15,-2.648 2.649,-2.648 1.496,0 2.648,1.217 2.648,2.648 l 0,2.718 C 2.648,-1.198 1.496,0 0,0 m 1.086,-5.366 c 0,-0.527 -0.49,-1.018 -1.086,-1.018 -0.599,0 -1.086,0.491 -1.086,1.018 l 0,2.718 c 0,0.599 0.487,1.08 1.086,1.08 0.596,0 1.086,-0.481 1.086,-1.08 l 0,-2.718 z"
               inkscape:connector-curvature="0" />
          </g>
          <path
             id="path4141"
             style="fill:#ed1d24;fill-opacity:1;fill-rule:nonzero;stroke:none"
             d="m 513.419,24.576 l25.447,0 0,25.378 -25.447,0 0,-25.378 z"
             inkscape:connector-curvature="0" />
          <path
             id="path4143"
             style="fill:#ffffff;fill-opacity:1;fill-rule:nonzero;stroke:none"
             d="m 527.876,38.759 l7.187,0 0,1.559 -7.187,0 0,-1.559 z"
             inkscape:connector-curvature="0" />
          <path
             id="path4145"
             style="fill:#ffffff;fill-opacity:1;fill-rule:nonzero;stroke:none"
             d="m 534.313,46.492 l-5.626,0 0,-1.623 5.626,0 0,1.623 z"
             inkscape:connector-curvature="0" />
          <g
             transform="translate(522.7891,46.4922)"
             id="g4147">
            <path
               id="path4149"
               style="fill:#ffffff;fill-opacity:1;fill-rule:nonzero;stroke:none"
               d="m 0,0 l-4.821,0 0,-1.623 3.19,0 0,-4.553 -4.002,0 0,-1.557 7.259,0 0,1.557 L 0,-6.176 0,0 z"
               inkscape:connector-curvature="0" />
          </g>
          <g
             transform="translate(527.876,35.7715)"
             id="g4151">
            <path
               id="path4153"
               style="fill:#ffffff;fill-opacity:1;fill-rule:nonzero;stroke:none"
               d="m 0,0 l0,0 0,-7.739 7.187,0 L 7.187,0 0,0 z m 5.621,-6.109 l-3.995,0 0,4.546 3.995,0 0,-4.546 z"
               inkscape:connector-curvature="0" />
          </g>
          <g
             transform="translate(517.9678,35.7715)"
             id="g4155">
            <path
               id="path4157"
               style="fill:#ffffff;fill-opacity:1;fill-rule:nonzero;stroke:none"
               d="m 0,0 l-0.831,-3.871 1.626,0 0.489,2.308 3.2,0 -0.958,-4.546 -4.829,0 -0.325,-1.63 6.45,0 L 6.448,0 0,0 z"
               inkscape:connector-curvature="0" />
          </g>
        </g>
      </g>
    </g>
   </g>
</svg>
